<svg aria-hidden="true" style="position: absolute; width: 0; height: 0; overflow: hidden;" version="1.1" xmlns="http://www.w3.org/2000/svg" xmlns:xlink="http://www.w3.org/1999/xlink">
<defs>
<symbol id="icon-github_git_hub_logo_icon_132878" viewBox="0 0 32 32">
<path fill="#ecf0f1" style="fill: var(--color1, #ecf0f1)" d="M14.72 6.48c6.24-0.8 11.6 4.48 10.8 10.8-0.56 4.24-4 7.76-8.24 8.24-6.24 0.8-11.6-4.48-10.8-10.8 0.56-4.24 4-7.68 8.24-8.24z"></path>
<path fill="#9b59b6" style="fill: var(--color2, #9b59b6)" d="M13.36 25.040v-3.12c-0.48 0.080-0.8 0.080-0.96 0.080-0.96 0-1.68-0.48-2.080-1.36-0.16-0.32-0.32-0.64-0.48-0.88-0.080-0.080-0.16-0.16-0.32-0.24-0.16-0.16-0.24-0.24-0.4-0.32s-0.16-0.16-0.16-0.24c0-0.080 0.16-0.16 0.4-0.16 0.56 0 0.96 0.32 1.2 0.64 0.24 0.4 0.56 0.8 0.96 1.040 0.24 0.16 0.48 0.24 0.72 0.24 0.4 0 0.72-0.080 1.12-0.16 0.16-0.48 0.4-0.96 0.88-1.2-2.96-0.32-4.4-1.36-4.4-4.16 0-1.040 0.32-2 0.96-2.72-0.16-0.4-0.16-0.72-0.16-1.12 0-0.56 0.16-1.040 0.4-1.44 1.040 0 1.68 0.32 2.72 1.12 0.72-0.16 1.44-0.24 2.32-0.24 0.72 0 1.44 0.080 2.080 0.24 1.040-0.72 1.68-1.040 2.72-1.040 0.24 0.48 0.4 0.96 0.4 1.44 0 0.4-0.080 0.72-0.16 1.12 0.64 0.72 0.96 1.6 0.96 2.72 0 2.8-1.44 3.92-4.4 4.16 0.64 0.4 0.96 1.040 0.96 1.76v3.84h-5.28z"></path>
<path fill="#9b59b6" style="fill: var(--color2, #9b59b6)" d="M14.64 5.68c-4.64 0.56-8.4 4.32-8.96 8.96-0.88 6.8 4.88 12.56 11.68 11.68 4.64-0.56 8.4-4.32 8.96-8.96 0.88-6.8-4.88-12.56-11.68-11.68zM24.64 17.52c-0.56 3.68-3.52 6.56-7.2 7.2-6 0.96-11.12-4.16-10.16-10.16 0.56-3.68 3.52-6.56 7.2-7.2 6.080-1.040 11.2 4.080 10.16 10.16z"></path>
</symbol>
<symbol id="icon-microsoft-office-excel_81549" viewBox="0 0 32 32">
<path fill="#1e7145" style="fill: var(--color3, #1e7145)" d="M17.409 6.593v18.622l-11.072-1.919v-14.784l11.072-1.919zM17.935 8.742h7.353c0.406 0 0.484 0.080 0.484 0.484v13.352c0 0.405-0.078 0.484-0.484 0.484h-7.353v-1.259h2.806v-1.934h-2.806v-0.581h2.806v-1.936h-2.806v-0.581h2.806v-1.936h-2.806v-0.581h2.806v-1.934h-2.806v-0.581h2.806v-1.936h-2.806v-1.065zM3.779 28.288h24.444l0.004-24.448h-24.451l0.004 24.448z"></path>
<path fill="#1e7145" style="fill: var(--color3, #1e7145)" d="M12.933 12.447l-1.009 2.308-0.784-2.168-1.261 0.056 1.252 3.158-1.41 3.090 1.239 0.093 0.994-2.222 0.925 2.351 1.426 0.078-1.546-3.402 1.479-3.436z"></path>
<path fill="#1e7145" style="fill: var(--color3, #1e7145)" d="M21.322 21.804h3.193v-1.934h-3.193z"></path>
<path fill="#1e7145" style="fill: var(--color3, #1e7145)" d="M21.322 19.29h3.193v-1.936h-3.193z"></path>
<path fill="#1e7145" style="fill: var(--color3, #1e7145)" d="M21.322 16.774h3.193v-1.936h-3.193z"></path>
<path fill="#1e7145" style="fill: var(--color3, #1e7145)" d="M21.322 11.743h3.193v-1.936h-3.193z"></path>
<path fill="#1e7145" style="fill: var(--color3, #1e7145)" d="M21.322 14.258h3.193v-1.934h-3.193z"></path>
</symbol>
<symbol id="icon-microsoft-office-word_81551" viewBox="0 0 32 32">
<path fill="#2b5797" style="fill: var(--color4, #2b5797)" d="M6.397 23.263l0.009-14.586 11.066-1.894v18.368l-11.075-1.889zM23.831 18.339h-5.921v-1.147h5.921v-0.764h-5.921v-1.145h5.921v-0.764h-5.921v-1.147h5.921v-0.764h-5.921v-1.147h5.921v-0.764h-5.921l0.011-1.803h7.168c0.385-0.014 0.463 0.062 0.448 0.448v13.311c0.005 0.23-0.065 0.428-0.448 0.385h-7.168l-0.011-2.026h5.921v-0.764h-5.921v-1.147h5.921v-0.764zM3.775 28.288h24.513l-0.033-24.48h-24.48v24.48z"></path>
<path fill="#2b5797" style="fill: var(--color4, #2b5797)" d="M14.089 12.578l-0.876 4.706-0.907-4.557-1.228 0.071-0.871 4.321-0.737-4.187-1.085 0.013 1.128 6.063 1.139 0.062 0.936-4.191 0.499 2.124c0.145 0.722 0.292 1.413 0.426 2.15l1.288 0.132 1.493-6.752-1.206 0.045z"></path>
</symbol>
<symbol id="icon-figma_logo_icon_171159" viewBox="0 0 32 32">
<path fill="#0acf83" style="fill: var(--color5, #0acf83)" d="M4.792 22.357c1.169 0 2.118-0.949 2.118-2.118v-2.118h-2.118c-1.169 0-2.118 0.949-2.118 2.118s0.949 2.118 2.118 2.118z"></path>
<path fill="#a259ff" style="fill: var(--color6, #a259ff)" d="M2.672 16c0-1.169 0.949-2.118 2.118-2.118h2.118v4.239h-2.118c-1.169 0-2.118-0.949-2.118-2.118z"></path>
<path fill="#f24e1e" style="fill: var(--color7, #f24e1e)" d="M2.672 11.761c0-1.169 0.949-2.118 2.118-2.118h2.118v4.239h-2.118c-1.169 0-2.118-0.949-2.118-2.118z"></path>
<path fill="#ff7262" style="fill: var(--color8, #ff7262)" d="M6.89 9.643h2.118c1.169 0 2.118 0.949 2.118 2.118s-0.949 2.118-2.118 2.118h-2.118z"></path>
<path fill="#1abcfe" style="fill: var(--color9, #1abcfe)" d="M11.149 16c0 1.169-0.949 2.118-2.118 2.118s-2.14-0.949-2.14-2.118 0.949-2.118 2.118-2.118 2.118 0.949 2.118 2.118z"></path>
<path fill="#000" style="fill: var(--color10, #000)" d="M13.465 13.155v4.441h0.571v-2.12h1.374v-0.551h-1.374v-1.214h1.785v-0.556zM16.855 14.057c0.207 0 0.373-0.167 0.373-0.373s-0.169-0.351-0.373-0.351-0.373 0.167-0.373 0.373c0 0.1 0.040 0.193 0.111 0.267s0.164 0.111 0.267 0.111zM16.566 14.617v2.978h0.549v-2.978h-0.567zM19.26 14.529c-0.76 0-1.289 0.667-1.289 1.405s0.533 1.4 1.289 1.4c0.006 0 0.013 0 0.020 0 0.324 0 0.616-0.136 0.822-0.353l0-0v0.396c-0.002 0.248-0.1 0.472-0.258 0.638l0-0c-0.162 0.165-0.386 0.267-0.635 0.267-0 0-0.001 0-0.001 0h0c-0.19-0.006-0.365-0.069-0.51-0.171l0.003 0.002-0.289 0.496c0.224 0.146 0.499 0.233 0.794 0.233 0.81 0 1.467-0.657 1.467-1.467 0-0.001 0-0.003 0-0.004v0-2.756h-0.571v0.267c-0.207-0.218-0.499-0.354-0.823-0.354-0.007 0-0.014 0-0.021 0h0.001zM18.544 15.933c-0.002-0.021-0.003-0.045-0.003-0.070 0-0.28 0.147-0.525 0.369-0.662l0.003-0.002c0.253-0.156 0.571-0.156 0.822 0s0.393 0.44 0.369 0.733c0.002 0.021 0.003 0.045 0.003 0.070 0 0.28-0.147 0.525-0.369 0.662l-0.003 0.002c-0.253 0.156-0.571 0.156-0.822 0s-0.393-0.44-0.369-0.733z"></path>
<path fill="#000" style="fill: var(--color10, #000)" d="M22.734 15.111c-0.342 0.001-0.619 0.278-0.62 0.62v1.885h-0.571v-2.978h0.571v0.251c0.173-0.231 0.449-0.365 0.738-0.36 0.365-0.009 0.705 0.187 0.885 0.505 0.222-0.311 0.542-0.5 0.889-0.505 0.651 0 1.056 0.525 1.058 1.174v1.896h-0.571v-1.889c0.004-0.026 0.006-0.057 0.006-0.088 0-0.344-0.279-0.622-0.622-0.622-0.123 0-0.239 0.036-0.335 0.098l0.003-0.002c-0.171 0.113-0.282 0.304-0.282 0.521 0 0.033 0.003 0.064 0.007 0.096l-0-0.003v1.885h-0.549v-1.883c-0.001-0.342-0.278-0.619-0.62-0.62h-0zM28.735 14.955c-0.251-0.262-0.604-0.425-0.995-0.425-0.004 0-0.008 0-0.013 0h0.001c-0.851 0-1.445 0.72-1.445 1.556s0.6 1.556 1.445 1.556c0.004 0 0.008 0 0.012 0 0.391 0 0.744-0.163 0.994-0.424l0-0v0.338h0.571v-2.978h-0.571zM26.846 16.111c-0.029-0.356 0.144-0.698 0.449-0.885s0.667-0.187 0.991 0c0.273 0.171 0.452 0.471 0.452 0.812 0 0.026-0.001 0.051-0.003 0.076l0-0.003c0.029 0.356-0.144 0.698-0.449 0.885s-0.667 0.187-0.991 0c-0.273-0.171-0.452-0.471-0.452-0.812 0-0.026 0.001-0.051 0.003-0.076l-0 0.003z"></path>
</symbol>
<symbol id="icon-file_type_photoshop_icon_130268" viewBox="0 0 32 32">
<path fill="#0c0824" style="fill: var(--color11, #0c0824)" d="M3.167 3.517h25.666v24.966h-25.666z"></path>
<path fill="#31c5f0" style="fill: var(--color12, #31c5f0)" d="M3.167 3.517h25.666v24.966h-25.666zM2 29.65h28v-27.3h-28zM20.877 13.55c-0.922 0-1.237 0.467-1.237 0.852 0 0.42 0.21 0.712 1.447 1.353 1.832 0.887 2.4 1.738 2.4 2.987 0 1.867-1.423 2.87-3.348 2.87-0.056 0.002-0.122 0.003-0.188 0.003-0.802 0-1.56-0.186-2.234-0.517l0.030 0.013c-0.082-0.035-0.093-0.093-0.093-0.187v-1.717c0-0.117 0.058-0.152 0.14-0.093 0.662 0.431 1.472 0.688 2.342 0.688 0.001 0 0.002 0 0.003 0h-0c0.922 0 1.307-0.385 1.307-0.91 0-0.42-0.268-0.793-1.447-1.4-1.657-0.793-2.345-1.6-2.345-2.94 0-1.505 1.178-2.753 3.22-2.753 0.069-0.003 0.149-0.005 0.23-0.005 0.667 0 1.306 0.122 1.895 0.344l-0.037-0.012c0.071 0.047 0.118 0.126 0.118 0.216 0 0.006-0 0.012-0.001 0.017l0-0.001v1.6c0 0.093-0.058 0.152-0.175 0.117-0.564-0.33-1.242-0.526-1.966-0.526-0.022 0-0.045 0-0.067 0.001l0.003-0zM10.843 14.938c0.268 0.023 0.478 0.023 0.945 0.023 1.365 0 2.648-0.478 2.648-2.333 0-1.482-0.922-2.228-2.473-2.228-0.467 0-0.91 0.023-1.12 0.035zM8.766 8.738c0-0.082 0.163-0.14 0.257-0.14 0.747-0.035 1.855-0.058 3.010-0.058 3.232 0 4.492 1.773 4.492 4.037 0 2.963-2.147 4.235-4.783 4.235-0.443 0-0.595-0.023-0.91-0.023v4.48c0 0.093-0.035 0.14-0.14 0.14h-1.785c-0.093 0-0.14-0.035-0.14-0.14v-12.526z"></path>
</symbol>
<symbol id="icon-file_type_vscode_icon_130084" viewBox="0 0 32 32">
<path fill="#0065a9" style="fill: var(--color13, #0065a9)" d="M29.010 5.030l-5.766-2.776c-0.221-0.109-0.481-0.173-0.757-0.173-0.481 0-0.917 0.195-1.232 0.511l-0 0-18.875 17.208c-0.235 0.214-0.382 0.522-0.382 0.863 0 0.302 0.115 0.577 0.303 0.784l-0.001-0.001c0.025 0.027 0.050 0.053 0.077 0.077l1.541 1.4c0.206 0.188 0.482 0.303 0.784 0.303 0.266 0 0.511-0.089 0.708-0.239l-0.003 0.002 22.735-17.24c0.192-0.147 0.436-0.236 0.7-0.236 0.639 0 1.158 0.518 1.158 1.157v0-0.067c-0-0.69-0.399-1.286-0.98-1.57l-0.010-0.005z"></path>
<path fill="#007acc" style="fill: var(--color14, #007acc)" d="M29.010 26.97l-5.766 2.777c-0.221 0.109-0.481 0.172-0.756 0.172-0.481 0-0.917-0.195-1.233-0.51l0 0-18.875-17.209c-0.235-0.214-0.382-0.522-0.382-0.864 0-0.302 0.115-0.577 0.303-0.784l-0.001 0.001c0.025-0.027 0.050-0.053 0.077-0.077l1.541-1.4c0.206-0.189 0.482-0.305 0.786-0.305 0.267 0 0.513 0.090 0.709 0.241l-0.003-0.002 22.732 17.24c0.192 0.147 0.436 0.236 0.7 0.236 0.639 0 1.158-0.518 1.158-1.157v-0 0.072c-0.002 0.688-0.401 1.282-0.98 1.565l-0.010 0.005z"></path>
<path fill="#1f9cf0" style="fill: var(--color15, #1f9cf0)" d="M23.244 29.747c-0.221 0.109-0.481 0.172-0.756 0.172-0.481 0-0.917-0.195-1.233-0.51l0 0c0.185 0.183 0.439 0.295 0.72 0.295 0.564 0 1.022-0.456 1.025-1.020v-25.368c0-0 0-0.001 0-0.001 0-0.566-0.458-1.024-1.024-1.024-0.283 0-0.54 0.115-0.725 0.301l-0 0c0.316-0.316 0.752-0.511 1.234-0.511 0.275 0 0.535 0.064 0.766 0.177l-0.010-0.005 5.765 2.772c0.593 0.288 0.994 0.884 0.995 1.575v18.8c0 0 0 0 0 0 0 0.69-0.4 1.287-0.981 1.571l-0.010 0.005z"></path>
</symbol>
<symbol id="icon-tel1" viewBox="0 0 32 32">
<path   d="M3.653 4.739c0.003 0-0.074 0.081-0.172 0.177-0.375 0.364-1.15 1.121-1.158 2.705-0.012 2.216 1.445 6.33 8.46 13.344 6.983 6.98 11.091 8.454 13.311 8.454h0.033c1.584-0.008 2.34-0.785 2.705-1.158 0.111-0.115 0.201-0.198 0.265-0.251 1.542-1.551 2.332-2.707 2.324-3.447-0.011-0.756-0.951-1.649-2.25-2.885-0.413-0.393-0.862-0.821-1.336-1.294-1.228-1.225-1.836-1.016-3.174-0.545-1.85 0.649-4.39 1.531-8.335-2.415-3.951-3.948-3.067-6.485-2.42-8.335 0.468-1.338 0.681-1.948-0.548-3.177-0.482-0.48-0.914-0.935-1.312-1.353-1.228-1.291-2.114-2.225-2.865-2.236h-0.012c-0.742 0-1.894 0.793-3.524 2.423 0.005-0.005 0.006-0.006 0.008-0.006zM24.097 31.742c-3.859 0-8.889-3.072-14.954-9.134-6.088-6.087-9.165-11.133-9.142-14.999 0.014-2.555 1.353-3.863 1.857-4.354 0.026-0.033 0.116-0.121 0.147-0.152 2.22-2.222 3.718-3.12 5.207-3.103 1.73 0.023 2.961 1.318 4.518 2.957 0.386 0.406 0.804 0.847 1.27 1.311 2.261 2.261 1.617 4.105 1.099 5.585-0.564 1.615-1.051 3.009 1.869 5.929 2.923 2.92 4.317 2.433 5.926 1.864 1.482-0.517 3.321-1.164 5.585 1.096 0.458 0.458 0.893 0.872 1.294 1.254 1.647 1.565 2.948 2.803 2.97 4.537 0.019 1.479-0.879 2.985-3.097 5.204l-0.982-0.666 0.83 0.811c-0.491 0.503-1.798 1.844-4.354 1.858h-0.043z"></path>
</symbol>
<symbol id="icon-envelope" viewBox="0 0 43 32">
<path     d="M38.667 0h-34.667c-2.206 0-4 1.794-4 4v24c0 2.206 1.794 4 4 4h34.667c2.206 0 4-1.794 4-4v-24c0-2.206-1.794-4-4-4zM38.667 2.667c0.181 0 0.353 0.038 0.511 0.103l-17.844 15.466-17.844-15.466c0.158-0.066 0.33-0.103 0.511-0.103h34.667zM38.667 29.333h-34.667c-0.736 0-1.333-0.598-1.333-1.333v-22.413l17.793 15.421c0.251 0.217 0.563 0.326 0.874 0.326s0.622-0.108 0.874-0.326l17.793-15.421v22.413c0 0.736-0.598 1.333-1.333 1.333z"></path>
</symbol>
<symbol id="icon-file-word" viewBox="0 0 32 32">
<path d="M19.993 14.872h1.382l-1.594 7.068-2.073-9.938h-3.33l-2.41 9.938-1.807-9.938h-3.481l3.534 15.996h3.401l2.384-9.46 2.133 9.46h3.136l4.051-15.996h-5.326v2.87z"></path>
<path d="M28.681 7.159c-0.694-0.947-1.662-2.053-2.724-3.116s-2.169-2.030-3.116-2.724c-1.612-1.182-2.393-1.319-2.841-1.319h-15.5c-1.378 0-2.5 1.121-2.5 2.5v27c0 1.378 1.121 2.5 2.5 2.5h23c1.378 0 2.5-1.122 2.5-2.5v-19.5c0-0.448-0.137-1.23-1.319-2.841v0zM24.543 5.457c0.959 0.959 1.712 1.825 2.268 2.543h-4.811v-4.811c0.718 0.556 1.584 1.309 2.543 2.268v0zM28 29.5c0 0.271-0.229 0.5-0.5 0.5h-23c-0.271 0-0.5-0.229-0.5-0.5v-27c0-0.271 0.229-0.5 0.5-0.5 0 0 15.499-0 15.5 0v7c0 0.552 0.448 1 1 1h7v19.5z"></path>
</symbol>
<symbol id="icon-file-excel" viewBox="0 0 32 32">
<path d="M23.22 12h-4.228l-2.992 4.407-2.992-4.407h-4.228l5.068 7.577-5.718 8.423h7.87v-2.862h-1.567l1.567-2.344 3.481 5.205h4.389l-5.718-8.423 5.068-7.577z"></path>
<path d="M28.681 7.159c-0.694-0.947-1.662-2.053-2.724-3.116s-2.169-2.030-3.116-2.724c-1.612-1.182-2.393-1.319-2.841-1.319h-15.5c-1.378 0-2.5 1.121-2.5 2.5v27c0 1.378 1.121 2.5 2.5 2.5h23c1.378 0 2.5-1.122 2.5-2.5v-19.5c0-0.448-0.137-1.23-1.319-2.841v0zM24.543 5.457c0.959 0.959 1.712 1.825 2.268 2.543h-4.811v-4.811c0.718 0.556 1.584 1.309 2.543 2.268v0zM28 29.5c0 0.271-0.229 0.5-0.5 0.5h-23c-0.271 0-0.5-0.229-0.5-0.5v-27c0-0.271 0.229-0.5 0.5-0.5 0 0 15.499-0 15.5 0v7c0 0.552 0.448 1 1 1h7v19.5z"></path>
</symbol>
</defs>
</svg>
